<svg width="300" height="219" viewBox="0 0 300 219" fill="none" xmlns="http://www.w3.org/2000/svg">
<rect x="1.49976" y="218.132" width="210" height="297" rx="30" transform="rotate(-90 1.49976 218.132)" fill="white"/>
<path d="M266.684 0.511626C283.363 0.229861 297.068 13.6079 297.19 30.2887L298.283 180.214C298.403 196.699 285.2 210.192 268.717 210.43L33.1695 213.829C16.5472 214.069 2.89929 200.746 2.73798 184.123L1.28897 34.7837C1.12903 18.3001 14.2988 4.77533 30.7808 4.49689L266.684 0.511626Z" fill="white"/>
<path d="M2 86H298V188C298 204.569 284.569 218 268 218H32C15.4315 218 2 204.569 2 188V86Z" fill="white"/>
<path d="M20.885 125V123.355L20.997 123.46H19.324C18.946 123.46 18.6193 123.395 18.344 123.264C18.0733 123.133 17.8657 122.944 17.721 122.697C17.581 122.45 17.511 122.153 17.511 121.808C17.511 121.439 17.588 121.129 17.742 120.877C17.9007 120.62 18.12 120.427 18.4 120.296C18.6847 120.165 19.016 120.1 19.394 120.1H21.242V125H20.885ZM17.511 125L18.708 123.285H19.086L17.896 125H17.511ZM20.885 123.264V120.31L20.997 120.422H19.422C18.932 120.422 18.5517 120.539 18.281 120.772C18.0103 121.005 17.875 121.348 17.875 121.801C17.875 122.23 17.9987 122.564 18.246 122.802C18.498 123.035 18.869 123.152 19.359 123.152H20.997L20.885 123.264Z" fill="black"/>
<path d="M31.373 106.084C30.9717 106.084 30.6123 105.986 30.295 105.79C29.9777 105.589 29.728 105.3 29.546 104.922C29.364 104.544 29.273 104.087 29.273 103.55C29.273 103.013 29.364 102.556 29.546 102.178C29.728 101.8 29.9777 101.513 30.295 101.317C30.6123 101.116 30.9717 101.016 31.373 101.016C31.779 101.016 32.1383 101.116 32.451 101.317C32.7683 101.513 33.018 101.8 33.2 102.178C33.382 102.556 33.473 103.013 33.473 103.55C33.473 104.087 33.382 104.544 33.2 104.922C33.018 105.3 32.7683 105.589 32.451 105.79C32.1383 105.986 31.779 106.084 31.373 106.084ZM31.373 105.125C31.5643 105.125 31.73 105.071 31.87 104.964C32.0147 104.857 32.1267 104.686 32.206 104.453C32.29 104.22 32.332 103.919 32.332 103.55C32.332 103.181 32.29 102.88 32.206 102.647C32.1267 102.414 32.0147 102.243 31.87 102.136C31.73 102.029 31.5643 101.975 31.373 101.975C31.1863 101.975 31.0207 102.029 30.876 102.136C30.736 102.243 30.624 102.414 30.54 102.647C30.4607 102.88 30.421 103.181 30.421 103.55C30.421 103.919 30.4607 104.22 30.54 104.453C30.624 104.686 30.736 104.857 30.876 104.964C31.0207 105.071 31.1863 105.125 31.373 105.125Z" fill="black"/>
<path d="M52.029 106V101.52L52.519 102.01H51.049V101.1H53.163V106H52.029Z" fill="black"/>
<path d="M77.231 106V105.265L79.121 103.48C79.2703 103.345 79.38 103.223 79.45 103.116C79.52 103.009 79.5667 102.911 79.59 102.822C79.618 102.733 79.632 102.652 79.632 102.577C79.632 102.381 79.5643 102.232 79.429 102.129C79.2983 102.022 79.1047 101.968 78.848 101.968C78.6427 101.968 78.4513 102.008 78.274 102.087C78.1013 102.166 77.9543 102.29 77.833 102.458L77.007 101.926C77.1937 101.646 77.455 101.424 77.791 101.261C78.127 101.098 78.5143 101.016 78.953 101.016C79.317 101.016 79.6343 101.077 79.905 101.198C80.1803 101.315 80.3927 101.48 80.542 101.695C80.696 101.91 80.773 102.166 80.773 102.465C80.773 102.624 80.752 102.782 80.71 102.941C80.6727 103.095 80.5933 103.258 80.472 103.431C80.3553 103.604 80.1827 103.797 79.954 104.012L78.386 105.489L78.169 105.076H80.934V106H77.231Z" fill="black"/>
<path d="M102.862 106.084C102.521 106.084 102.183 106.04 101.847 105.951C101.511 105.858 101.226 105.727 100.993 105.559L101.434 104.691C101.621 104.826 101.838 104.934 102.085 105.013C102.332 105.092 102.582 105.132 102.834 105.132C103.119 105.132 103.343 105.076 103.506 104.964C103.669 104.852 103.751 104.698 103.751 104.502C103.751 104.315 103.679 104.168 103.534 104.061C103.389 103.954 103.156 103.9 102.834 103.9H102.316V103.151L103.681 101.604L103.807 102.01H101.238V101.1H104.668V101.835L103.31 103.382L102.736 103.053H103.065C103.667 103.053 104.122 103.188 104.43 103.459C104.738 103.73 104.892 104.077 104.892 104.502C104.892 104.777 104.82 105.036 104.675 105.279C104.53 105.517 104.309 105.711 104.01 105.86C103.711 106.009 103.329 106.084 102.862 106.084Z" fill="black"/>
<path d="M125.217 104.971V104.208L127.527 101.1H128.717L126.456 104.208L125.903 104.047H129.76V104.971H125.217ZM127.856 106V104.971L127.891 104.047V103.13H128.962V106H127.856Z" fill="black"/>
<path d="M150.939 106.084C150.598 106.084 150.26 106.04 149.924 105.951C149.593 105.858 149.308 105.727 149.07 105.559L149.518 104.691C149.705 104.826 149.919 104.934 150.162 105.013C150.409 105.092 150.659 105.132 150.911 105.132C151.196 105.132 151.42 105.076 151.583 104.964C151.746 104.852 151.828 104.696 151.828 104.495C151.828 104.369 151.795 104.257 151.73 104.159C151.665 104.061 151.548 103.986 151.38 103.935C151.217 103.884 150.986 103.858 150.687 103.858H149.434L149.686 101.1H152.675V102.01H150.092L150.68 101.492L150.505 103.459L149.917 102.941H150.953C151.438 102.941 151.828 103.009 152.122 103.144C152.421 103.275 152.638 103.454 152.773 103.683C152.908 103.912 152.976 104.171 152.976 104.46C152.976 104.749 152.904 105.018 152.759 105.265C152.614 105.508 152.39 105.706 152.087 105.86C151.788 106.009 151.406 106.084 150.939 106.084Z" fill="black"/>
<path d="M175.464 106.084C175.016 106.084 174.626 105.991 174.295 105.804C173.968 105.617 173.716 105.344 173.539 104.985C173.362 104.626 173.273 104.182 173.273 103.655C173.273 103.09 173.378 102.612 173.588 102.22C173.803 101.828 174.097 101.529 174.47 101.324C174.848 101.119 175.282 101.016 175.772 101.016C176.033 101.016 176.283 101.044 176.521 101.1C176.759 101.156 176.964 101.24 177.137 101.352L176.717 102.185C176.582 102.092 176.437 102.029 176.283 101.996C176.129 101.959 175.968 101.94 175.8 101.94C175.375 101.94 175.039 102.068 174.792 102.325C174.545 102.582 174.421 102.962 174.421 103.466C174.421 103.55 174.421 103.643 174.421 103.746C174.426 103.849 174.44 103.951 174.463 104.054L174.148 103.76C174.237 103.578 174.351 103.426 174.491 103.305C174.631 103.179 174.797 103.086 174.988 103.025C175.184 102.96 175.399 102.927 175.632 102.927C175.949 102.927 176.234 102.99 176.486 103.116C176.738 103.242 176.939 103.419 177.088 103.648C177.242 103.877 177.319 104.145 177.319 104.453C177.319 104.784 177.235 105.074 177.067 105.321C176.904 105.564 176.682 105.753 176.402 105.888C176.127 106.019 175.814 106.084 175.464 106.084ZM175.401 105.237C175.56 105.237 175.7 105.209 175.821 105.153C175.947 105.092 176.045 105.006 176.115 104.894C176.185 104.782 176.22 104.654 176.22 104.509C176.22 104.285 176.143 104.108 175.989 103.977C175.84 103.842 175.639 103.774 175.387 103.774C175.219 103.774 175.072 103.807 174.946 103.872C174.82 103.933 174.72 104.019 174.645 104.131C174.575 104.238 174.54 104.364 174.54 104.509C174.54 104.649 174.575 104.775 174.645 104.887C174.715 104.994 174.813 105.081 174.939 105.146C175.065 105.207 175.219 105.237 175.401 105.237Z" fill="black"/>
<path d="M198.057 106L200.031 101.534L200.325 102.024H197.686L198.19 101.492V102.822H197.182V101.1H201.109V101.835L199.289 106H198.057Z" fill="black"/>
<path d="M224.303 106.084C223.892 106.084 223.533 106.023 223.225 105.902C222.917 105.776 222.677 105.601 222.504 105.377C222.331 105.148 222.245 104.882 222.245 104.579C222.245 104.276 222.329 104.019 222.497 103.809C222.67 103.594 222.91 103.433 223.218 103.326C223.526 103.214 223.888 103.158 224.303 103.158C224.723 103.158 225.087 103.214 225.395 103.326C225.708 103.433 225.948 103.594 226.116 103.809C226.289 104.019 226.375 104.276 226.375 104.579C226.375 104.882 226.289 105.148 226.116 105.377C225.943 105.601 225.701 105.776 225.388 105.902C225.08 106.023 224.718 106.084 224.303 106.084ZM224.303 105.251C224.588 105.251 224.812 105.188 224.975 105.062C225.143 104.936 225.227 104.763 225.227 104.544C225.227 104.325 225.143 104.154 224.975 104.033C224.812 103.907 224.588 103.844 224.303 103.844C224.023 103.844 223.801 103.907 223.638 104.033C223.475 104.154 223.393 104.325 223.393 104.544C223.393 104.763 223.475 104.936 223.638 105.062C223.801 105.188 224.023 105.251 224.303 105.251ZM224.303 103.732C223.925 103.732 223.594 103.681 223.309 103.578C223.029 103.475 222.81 103.326 222.651 103.13C222.497 102.929 222.42 102.691 222.42 102.416C222.42 102.127 222.499 101.879 222.658 101.674C222.817 101.464 223.038 101.303 223.323 101.191C223.608 101.074 223.934 101.016 224.303 101.016C224.681 101.016 225.01 101.074 225.29 101.191C225.575 101.303 225.796 101.464 225.955 101.674C226.118 101.879 226.2 102.127 226.2 102.416C226.2 102.691 226.121 102.929 225.962 103.13C225.808 103.326 225.589 103.475 225.304 103.578C225.019 103.681 224.686 103.732 224.303 103.732ZM224.303 103.067C224.541 103.067 224.728 103.013 224.863 102.906C225.003 102.799 225.073 102.652 225.073 102.465C225.073 102.269 225.001 102.117 224.856 102.01C224.716 101.903 224.532 101.849 224.303 101.849C224.079 101.849 223.897 101.903 223.757 102.01C223.617 102.117 223.547 102.269 223.547 102.465C223.547 102.652 223.615 102.799 223.75 102.906C223.885 103.013 224.07 103.067 224.303 103.067Z" fill="black"/>
<path d="M247.995 101.016C248.448 101.016 248.837 101.109 249.164 101.296C249.491 101.483 249.743 101.756 249.92 102.115C250.097 102.47 250.186 102.913 250.186 103.445C250.186 104.01 250.079 104.488 249.864 104.88C249.654 105.272 249.362 105.571 248.989 105.776C248.616 105.981 248.182 106.084 247.687 106.084C247.43 106.084 247.183 106.056 246.945 106C246.707 105.944 246.502 105.86 246.329 105.748L246.749 104.915C246.884 105.008 247.029 105.074 247.183 105.111C247.337 105.144 247.498 105.16 247.666 105.16C248.086 105.16 248.42 105.032 248.667 104.775C248.919 104.518 249.045 104.138 249.045 103.634C249.045 103.55 249.043 103.457 249.038 103.354C249.033 103.251 249.022 103.149 249.003 103.046L249.311 103.34C249.232 103.522 249.12 103.676 248.975 103.802C248.83 103.923 248.662 104.017 248.471 104.082C248.28 104.143 248.065 104.173 247.827 104.173C247.514 104.173 247.23 104.11 246.973 103.984C246.721 103.858 246.518 103.681 246.364 103.452C246.215 103.223 246.14 102.955 246.14 102.647C246.14 102.311 246.222 102.022 246.385 101.779C246.553 101.536 246.777 101.35 247.057 101.219C247.342 101.084 247.654 101.016 247.995 101.016ZM248.065 101.863C247.902 101.863 247.759 101.893 247.638 101.954C247.517 102.01 247.421 102.094 247.351 102.206C247.281 102.313 247.246 102.442 247.246 102.591C247.246 102.815 247.321 102.995 247.47 103.13C247.624 103.261 247.827 103.326 248.079 103.326C248.242 103.326 248.387 103.296 248.513 103.235C248.644 103.17 248.744 103.081 248.814 102.969C248.884 102.857 248.919 102.731 248.919 102.591C248.919 102.451 248.884 102.327 248.814 102.22C248.749 102.108 248.653 102.022 248.527 101.961C248.401 101.896 248.247 101.863 248.065 101.863Z" fill="black"/>
<path d="M29.882 148V143.1H32.913V143.422H30.134L30.239 143.31V148H29.882Z" fill="black"/>
<path d="M41.259 167.37L41.406 167.118C41.6253 167.319 41.8727 167.468 42.148 167.566C42.4233 167.664 42.701 167.715 42.981 167.72C43.261 167.72 43.5177 167.678 43.751 167.594C43.989 167.505 44.1803 167.377 44.325 167.209C44.4697 167.036 44.542 166.829 44.542 166.586C44.542 166.269 44.4207 166.026 44.178 165.858C43.9353 165.69 43.5947 165.606 43.156 165.606H42.148V165.298H43.142C43.5153 165.298 43.807 165.219 44.017 165.06C44.227 164.897 44.332 164.673 44.332 164.388C44.332 164.183 44.2737 164.008 44.157 163.863C44.045 163.718 43.891 163.606 43.695 163.527C43.5037 163.443 43.2867 163.396 43.044 163.387C42.8013 163.378 42.5493 163.408 42.288 163.478C42.0313 163.548 41.784 163.66 41.546 163.814L41.413 163.513C41.6977 163.34 41.9917 163.219 42.295 163.149C42.5983 163.074 42.8923 163.049 43.177 163.072C43.4663 163.095 43.723 163.161 43.947 163.268C44.1757 163.375 44.3577 163.52 44.493 163.702C44.6283 163.884 44.696 164.099 44.696 164.346C44.696 164.584 44.6377 164.792 44.521 164.969C44.4043 165.142 44.2387 165.277 44.024 165.375C43.8093 165.468 43.5573 165.515 43.268 165.515L43.296 165.382C43.6273 165.382 43.912 165.433 44.15 165.536C44.3927 165.639 44.5793 165.783 44.71 165.97C44.8407 166.157 44.906 166.376 44.906 166.628C44.906 166.871 44.8453 167.085 44.724 167.272C44.6073 167.454 44.4463 167.606 44.241 167.727C44.0403 167.844 43.8117 167.93 43.555 167.986C43.303 168.037 43.0417 168.049 42.771 168.021C42.5003 167.998 42.2343 167.932 41.973 167.825C41.7117 167.718 41.4737 167.566 41.259 167.37Z" fill="black"/>
<path d="M65.882 168V163.1H66.239V167.398L69.578 163.1H69.893V168H69.536V163.709L66.197 168H65.882Z" fill="black"/>
<path d="M91.982 168.035C91.618 168.035 91.2797 167.974 90.967 167.853C90.659 167.727 90.3907 167.552 90.162 167.328C89.9333 167.104 89.756 166.843 89.63 166.544C89.504 166.241 89.441 165.909 89.441 165.55C89.441 165.191 89.504 164.862 89.63 164.563C89.756 164.26 89.9333 163.996 90.162 163.772C90.3953 163.548 90.666 163.375 90.974 163.254C91.282 163.128 91.618 163.065 91.982 163.065C92.3273 163.065 92.6493 163.121 92.948 163.233C93.2513 163.345 93.5103 163.515 93.725 163.744L93.501 163.975C93.291 163.77 93.0577 163.623 92.801 163.534C92.549 163.441 92.2807 163.394 91.996 163.394C91.6833 163.394 91.3917 163.448 91.121 163.555C90.855 163.662 90.6217 163.814 90.421 164.01C90.225 164.206 90.071 164.435 89.959 164.696C89.8517 164.957 89.798 165.242 89.798 165.55C89.798 165.858 89.8517 166.143 89.959 166.404C90.071 166.665 90.225 166.894 90.421 167.09C90.6217 167.286 90.855 167.438 91.121 167.545C91.3917 167.652 91.6833 167.706 91.996 167.706C92.2807 167.706 92.549 167.662 92.801 167.573C93.0577 167.48 93.291 167.328 93.501 167.118L93.725 167.349C93.5103 167.578 93.2513 167.75 92.948 167.867C92.6493 167.979 92.3273 168.035 91.982 168.035Z" fill="black"/>
<path d="M113.882 168V163.1H114.239V167.398L117.578 163.1H117.893V168H117.536V163.709L114.197 168H113.882ZM115.87 162.729C115.548 162.729 115.287 162.654 115.086 162.505C114.89 162.351 114.787 162.141 114.778 161.875H115.065C115.074 162.066 115.151 162.22 115.296 162.337C115.445 162.449 115.637 162.505 115.87 162.505C116.099 162.505 116.288 162.449 116.437 162.337C116.586 162.22 116.663 162.066 116.668 161.875H116.955C116.95 162.141 116.848 162.351 116.647 162.505C116.446 162.654 116.187 162.729 115.87 162.729Z" fill="black"/>
<path d="M141.284 168L139.303 165.536L139.604 165.361L141.704 168H141.284ZM137.882 168V163.1H138.239V168H137.882ZM138.12 165.676V165.354H139.611V165.676H138.12ZM139.625 165.585L139.296 165.515L141.179 163.1H141.578L139.625 165.585Z" fill="black"/>
<path d="M161.413 168.035C161.357 168.035 161.301 168.03 161.245 168.021C161.194 168.016 161.133 168.007 161.063 167.993L161.105 167.664C161.184 167.683 161.261 167.692 161.336 167.692C161.551 167.692 161.723 167.608 161.854 167.44C161.989 167.272 162.092 167.008 162.162 166.649C162.232 166.285 162.279 165.811 162.302 165.228L162.372 163.1H165.585V168H165.228V163.31L165.333 163.422H162.596L162.701 163.31L162.631 165.221C162.612 165.716 162.577 166.14 162.526 166.495C162.475 166.845 162.4 167.134 162.302 167.363C162.209 167.592 162.087 167.762 161.938 167.874C161.793 167.981 161.618 168.035 161.413 168.035Z" fill="black"/>
<path d="M185.413 168.035C185.357 168.035 185.301 168.03 185.245 168.021C185.194 168.016 185.133 168.007 185.063 167.993L185.105 167.664C185.184 167.683 185.261 167.692 185.336 167.692C185.551 167.692 185.723 167.608 185.854 167.44C185.989 167.272 186.092 167.008 186.162 166.649C186.232 166.285 186.279 165.811 186.302 165.228L186.372 163.1H189.585V168H189.228V163.31L189.333 163.422H186.596L186.701 163.31L186.631 165.221C186.612 165.716 186.577 166.14 186.526 166.495C186.475 166.845 186.4 167.134 186.302 167.363C186.209 167.592 186.087 167.762 185.938 167.874C185.793 167.981 185.618 168.035 185.413 168.035Z" fill="black"/>
<path d="M210.413 168.035C210.357 168.035 210.301 168.03 210.245 168.021C210.194 168.016 210.133 168.007 210.063 167.993L210.105 167.664C210.184 167.683 210.261 167.692 210.336 167.692C210.551 167.692 210.723 167.608 210.854 167.44C210.989 167.272 211.092 167.008 211.162 166.649C211.232 166.285 211.279 165.811 211.302 165.228L211.372 163.1H214.585V168H214.228V163.31L214.333 163.422H211.596L211.701 163.31L211.631 165.221C211.612 165.716 211.577 166.14 211.526 166.495C211.475 166.845 211.4 167.134 211.302 167.363C211.209 167.592 211.087 167.762 210.938 167.874C210.793 167.981 210.618 168.035 210.413 168.035Z" fill="black"/>
<path d="M234.413 168.035C234.357 168.035 234.301 168.03 234.245 168.021C234.194 168.016 234.133 168.007 234.063 167.993L234.105 167.664C234.184 167.683 234.261 167.692 234.336 167.692C234.551 167.692 234.723 167.608 234.854 167.44C234.989 167.272 235.092 167.008 235.162 166.649C235.232 166.285 235.279 165.811 235.302 165.228L235.372 163.1H238.585V168H238.228V163.31L238.333 163.422H235.596L235.701 163.31L235.631 165.221C235.612 165.716 235.577 166.14 235.526 166.495C235.475 166.845 235.4 167.134 235.302 167.363C235.209 167.592 235.087 167.762 234.938 167.874C234.793 167.981 234.618 168.035 234.413 168.035Z" fill="black"/>
<path d="M257.413 168.035C257.357 168.035 257.301 168.03 257.245 168.021C257.194 168.016 257.133 168.007 257.063 167.993L257.105 167.664C257.184 167.683 257.261 167.692 257.336 167.692C257.551 167.692 257.723 167.608 257.854 167.44C257.989 167.272 258.092 167.008 258.162 166.649C258.232 166.285 258.279 165.811 258.302 165.228L258.372 163.1H261.585V168H261.228V163.31L261.333 163.422H258.596L258.701 163.31L258.631 165.221C258.612 165.716 258.577 166.14 258.526 166.495C258.475 166.845 258.4 167.134 258.302 167.363C258.209 167.592 258.087 167.762 257.938 167.874C257.793 167.981 257.618 168.035 257.413 168.035Z" fill="black"/>
<path d="M281.413 168.035C281.357 168.035 281.301 168.03 281.245 168.021C281.194 168.016 281.133 168.007 281.063 167.993L281.105 167.664C281.184 167.683 281.261 167.692 281.336 167.692C281.551 167.692 281.723 167.608 281.854 167.44C281.989 167.272 282.092 167.008 282.162 166.649C282.232 166.285 282.279 165.811 282.302 165.228L282.372 163.1H285.585V168H285.228V163.31L285.333 163.422H282.596L282.701 163.31L282.631 165.221C282.612 165.716 282.577 166.14 282.526 166.495C282.475 166.845 282.4 167.134 282.302 167.363C282.209 167.592 282.087 167.762 281.938 167.874C281.793 167.981 281.618 168.035 281.413 168.035Z" fill="black"/>
<path d="M185.882 168V163.1H186.239V167.678H189.396V163.1H189.753V168H185.882ZM190.208 169.183V167.888L190.306 168H189.396V167.678H190.544V169.183H190.208Z" fill="black"/>
<path d="M52.834 148V143.31L52.939 143.422H51.07V143.1H54.955V143.422H53.086L53.191 143.31V148H52.834Z" fill="black"/>
<path d="M80.129 147.657C79.5597 147.657 79.0697 147.575 78.659 147.412C78.2483 147.244 77.931 147.004 77.707 146.691C77.4877 146.374 77.378 145.993 77.378 145.55C77.378 145.102 77.4877 144.722 77.707 144.409C77.931 144.092 78.2483 143.851 78.659 143.688C79.0697 143.52 79.5597 143.436 80.129 143.436C80.1337 143.436 80.1407 143.436 80.15 143.436C80.164 143.436 80.178 143.436 80.192 143.436C80.206 143.436 80.2153 143.436 80.22 143.436C80.794 143.436 81.2863 143.52 81.697 143.688C82.1123 143.851 82.4297 144.092 82.649 144.409C82.873 144.722 82.985 145.102 82.985 145.55C82.985 145.993 82.873 146.374 82.649 146.691C82.4297 147.004 82.1147 147.244 81.704 147.412C81.2933 147.575 80.801 147.657 80.227 147.657C80.2223 147.657 80.213 147.657 80.199 147.657C80.185 147.657 80.171 147.657 80.157 147.657C80.143 147.657 80.1337 147.657 80.129 147.657ZM80.178 147.363C80.1827 147.363 80.1873 147.363 80.192 147.363C80.2013 147.363 80.2083 147.363 80.213 147.363C80.717 147.358 81.1487 147.286 81.508 147.146C81.872 147.006 82.1497 146.801 82.341 146.53C82.537 146.259 82.635 145.93 82.635 145.543C82.635 145.156 82.537 144.829 82.341 144.563C82.1497 144.292 81.8743 144.087 81.515 143.947C81.1557 143.802 80.724 143.73 80.22 143.73C80.2153 143.73 80.2083 143.73 80.199 143.73C80.1897 143.73 80.1827 143.73 80.178 143.73C79.6693 143.73 79.2307 143.8 78.862 143.94C78.498 144.08 78.218 144.285 78.022 144.556C77.826 144.827 77.728 145.158 77.728 145.55C77.728 145.937 77.826 146.266 78.022 146.537C78.2227 146.808 78.505 147.013 78.869 147.153C79.2377 147.293 79.674 147.363 80.178 147.363ZM80.01 148.154V142.946H80.353V148.154H80.01Z" fill="black"/>
<path d="M105.515 143.1H105.872V148H105.515V143.1ZM102.239 148H101.882V143.1H102.239V148ZM105.557 145.669H102.197V145.354H105.557V145.669Z" fill="black"/>
<path d="M125.315 143.1H125.735L127.212 145.165L128.696 143.1H129.123L127.436 145.459L129.256 148H128.829L127.212 145.76L125.609 148H125.189L126.995 145.466L125.315 143.1Z" fill="black"/>
<path d="M152.745 147.678L152.647 147.79V143.1H153.004V147.79L152.899 147.678H155.524L155.412 147.79V143.1H155.769V148H149.882V143.1H150.239V147.79L150.134 147.678H152.745Z" fill="black"/>
<path d="M173.882 148V143.1H177.914V148H177.557V143.31L177.662 143.422H174.134L174.239 143.31V148H173.882Z" fill="black"/>
<path d="M197.882 148V143.1H199.639C200.05 143.1 200.402 143.165 200.696 143.296C200.99 143.427 201.216 143.616 201.375 143.863C201.534 144.106 201.613 144.402 201.613 144.752C201.613 145.093 201.534 145.387 201.375 145.634C201.216 145.881 200.99 146.07 200.696 146.201C200.402 146.332 200.05 146.397 199.639 146.397H198.078L198.239 146.229V148H197.882ZM198.239 146.25L198.078 146.075H199.639C200.166 146.075 200.565 145.961 200.836 145.732C201.111 145.499 201.249 145.172 201.249 144.752C201.249 144.327 201.111 144.001 200.836 143.772C200.565 143.539 200.166 143.422 199.639 143.422H198.078L198.239 143.247V146.25Z" fill="black"/>
<path d="M222.882 148V143.1H226.375V143.415H223.239V145.179H224.898C225.472 145.179 225.908 145.296 226.207 145.529C226.506 145.762 226.655 146.105 226.655 146.558C226.655 147.029 226.496 147.389 226.179 147.636C225.866 147.879 225.407 148 224.8 148H222.882ZM223.239 147.699H224.807C225.297 147.699 225.668 147.606 225.92 147.419C226.172 147.228 226.298 146.945 226.298 146.572C226.298 145.839 225.801 145.473 224.807 145.473H223.239V147.699Z" fill="black"/>
<path d="M246.133 148L248.387 143.1H248.744L250.998 148H250.613L248.485 143.324H248.639L246.518 148H246.133ZM246.959 146.621L247.078 146.32H250.011L250.13 146.621H246.959Z" fill="black"/>
<path d="M276.356 148L274.641 145.536L274.949 145.361L276.783 148H276.356ZM273.549 145.676V145.354H274.914V145.676H273.549ZM274.963 145.585L274.634 145.515L276.244 143.1H276.643L274.963 145.585ZM270.616 148H270.189L272.016 145.361L272.331 145.536L270.616 148ZM273.661 148H273.311V143.1H273.661V148ZM273.423 145.676H272.058V145.354H273.423V145.676ZM272.009 145.585L270.322 143.1H270.728L272.331 145.515L272.009 145.585Z" fill="black"/>
<path d="M41.882 125V120.1H42.239V122.347H43.499V122.676H42.239V125H41.882ZM45.746 125.035C45.4007 125.035 45.081 124.974 44.787 124.853C44.493 124.727 44.2363 124.552 44.017 124.328C43.8023 124.104 43.6343 123.843 43.513 123.544C43.3917 123.241 43.331 122.909 43.331 122.55C43.331 122.191 43.3917 121.862 43.513 121.563C43.6343 121.26 43.8023 120.996 44.017 120.772C44.2363 120.548 44.493 120.375 44.787 120.254C45.081 120.128 45.4007 120.065 45.746 120.065C46.0867 120.065 46.404 120.128 46.698 120.254C46.9967 120.375 47.2533 120.548 47.468 120.772C47.6873 120.996 47.8577 121.26 47.979 121.563C48.1003 121.862 48.161 122.191 48.161 122.55C48.161 122.909 48.1003 123.241 47.979 123.544C47.8577 123.843 47.6873 124.104 47.468 124.328C47.2533 124.552 46.9967 124.727 46.698 124.853C46.404 124.974 46.0867 125.035 45.746 125.035ZM45.746 124.706C46.0353 124.706 46.3037 124.652 46.551 124.545C46.803 124.438 47.0223 124.288 47.209 124.097C47.3957 123.901 47.5403 123.672 47.643 123.411C47.7457 123.15 47.797 122.863 47.797 122.55C47.797 122.237 47.7457 121.95 47.643 121.689C47.5403 121.428 47.3957 121.201 47.209 121.01C47.0223 120.814 46.803 120.662 46.551 120.555C46.3037 120.448 46.0353 120.394 45.746 120.394C45.4567 120.394 45.186 120.448 44.934 120.555C44.6867 120.662 44.4697 120.814 44.283 121.01C44.101 121.201 43.9563 121.428 43.849 121.689C43.7463 121.95 43.695 122.237 43.695 122.55C43.695 122.863 43.7463 123.15 43.849 123.411C43.9563 123.672 44.101 123.901 44.283 124.097C44.4697 124.288 44.6867 124.438 44.934 124.545C45.186 124.652 45.4567 124.706 45.746 124.706Z" fill="black"/>
<path d="M66.47 122.648V122.347H69.249V122.648H66.47ZM67.079 120.065C67.4243 120.065 67.7417 120.128 68.031 120.254C68.325 120.375 68.5817 120.548 68.801 120.772C69.0203 120.996 69.1883 121.26 69.305 121.563C69.4263 121.862 69.487 122.191 69.487 122.55C69.487 122.909 69.4263 123.241 69.305 123.544C69.1883 123.843 69.0203 124.104 68.801 124.328C68.5817 124.552 68.325 124.727 68.031 124.853C67.7417 124.974 67.4243 125.035 67.079 125.035C66.7197 125.035 66.3813 124.979 66.064 124.867C65.7513 124.75 65.4877 124.58 65.273 124.356L65.497 124.118C65.7117 124.328 65.9497 124.48 66.211 124.573C66.477 124.662 66.7617 124.706 67.065 124.706C67.359 124.706 67.6297 124.652 67.877 124.545C68.129 124.433 68.3483 124.281 68.535 124.09C68.7217 123.894 68.8663 123.665 68.969 123.404C69.0717 123.143 69.123 122.858 69.123 122.55C69.123 122.242 69.0717 121.957 68.969 121.696C68.8663 121.435 68.7217 121.208 68.535 121.017C68.3483 120.821 68.129 120.669 67.877 120.562C67.6297 120.45 67.359 120.394 67.065 120.394C66.7617 120.394 66.477 120.441 66.211 120.534C65.9497 120.623 65.7117 120.772 65.497 120.982L65.273 120.751C65.4877 120.522 65.7513 120.352 66.064 120.24C66.3813 120.123 66.7197 120.065 67.079 120.065Z" fill="black"/>
<path d="M91.849 121.892C92.423 121.892 92.8617 122.02 93.165 122.277C93.4683 122.534 93.62 122.914 93.62 123.418C93.62 123.936 93.459 124.33 93.137 124.601C92.8197 124.867 92.36 125 91.758 125H89.882V120.1H90.239V121.892H91.849ZM91.765 124.699C92.255 124.699 92.626 124.592 92.878 124.377C93.13 124.162 93.256 123.845 93.256 123.425C93.256 123.01 93.13 122.702 92.878 122.501C92.6307 122.296 92.2597 122.193 91.765 122.193H90.239V124.699H91.765Z" fill="black"/>
<path d="M115.849 121.892C116.423 121.892 116.862 122.02 117.165 122.277C117.468 122.534 117.62 122.914 117.62 123.418C117.62 123.936 117.459 124.33 117.137 124.601C116.82 124.867 116.36 125 115.758 125H113.882V120.1H114.239V121.892H115.849ZM115.765 124.699C116.255 124.699 116.626 124.592 116.878 124.377C117.13 124.162 117.256 123.845 117.256 123.425C117.256 123.01 117.13 122.702 116.878 122.501C116.631 122.296 116.26 122.193 115.765 122.193H114.239V124.699H115.765Z" fill="black"/>
<path d="M139.849 121.892C140.423 121.892 140.862 122.02 141.165 122.277C141.468 122.534 141.62 122.914 141.62 123.418C141.62 123.936 141.459 124.33 141.137 124.601C140.82 124.867 140.36 125 139.758 125H137.882V120.1H138.239V121.892H139.849ZM139.765 124.699C140.255 124.699 140.626 124.592 140.878 124.377C141.13 124.162 141.256 123.845 141.256 123.425C141.256 123.01 141.13 122.702 140.878 122.501C140.631 122.296 140.26 122.193 139.765 122.193H138.239V124.699H139.765ZM142.523 125V120.1H142.88V125H142.523Z" fill="black"/>
<path d="M164.745 124.678L164.647 124.79V120.1H165.004V124.79L164.899 124.678H167.524L167.412 124.79V120.1H167.769V125H161.882V120.1H162.239V124.79L162.134 124.678H164.745ZM168.217 126.12V124.888L168.322 125H167.405V124.678H168.553V126.12H168.217Z" fill="black"/>
<path d="M186.197 122.354H188.85V122.669H186.197V122.354ZM186.239 124.678H189.263V125H185.882V120.1H189.158V120.422H186.239V124.678ZM188.129 119.512C188.064 119.512 188.005 119.489 187.954 119.442C187.903 119.391 187.877 119.33 187.877 119.26C187.877 119.185 187.903 119.125 187.954 119.078C188.005 119.031 188.064 119.008 188.129 119.008C188.199 119.008 188.257 119.031 188.304 119.078C188.355 119.125 188.381 119.185 188.381 119.26C188.381 119.33 188.355 119.391 188.304 119.442C188.257 119.489 188.199 119.512 188.129 119.512ZM186.925 119.512C186.855 119.512 186.794 119.489 186.743 119.442C186.696 119.391 186.673 119.33 186.673 119.26C186.673 119.185 186.696 119.125 186.743 119.078C186.794 119.031 186.855 119.008 186.925 119.008C186.995 119.008 187.053 119.031 187.1 119.078C187.151 119.125 187.177 119.185 187.177 119.26C187.177 119.33 187.151 119.391 187.1 119.442C187.053 119.489 186.995 119.512 186.925 119.512Z" fill="black"/>
<path d="M210.735 124.636C210.964 124.725 211.185 124.746 211.4 124.699C211.615 124.648 211.818 124.473 212.009 124.174L212.247 123.803L212.289 123.747L214.221 120.1H214.592L212.331 124.258C212.191 124.524 212.025 124.72 211.834 124.846C211.647 124.972 211.449 125.037 211.239 125.042C211.034 125.051 210.828 125.014 210.623 124.93L210.735 124.636ZM212.268 124.09L210.168 120.1H210.56L212.471 123.775L212.268 124.09Z" fill="black"/>
<path d="M235.197 122.354H237.85V122.669H235.197V122.354ZM235.239 124.678H238.263V125H234.882V120.1H238.158V120.422H235.239V124.678Z" fill="black"/>
<path d="M260.927 122.865C260.633 122.996 260.339 123.096 260.045 123.166C259.756 123.236 259.478 123.271 259.212 123.271C258.657 123.271 258.223 123.138 257.91 122.872C257.602 122.601 257.448 122.223 257.448 121.738V120.1H257.805V121.703C257.805 122.095 257.931 122.401 258.183 122.62C258.44 122.839 258.792 122.949 259.24 122.949C259.501 122.949 259.774 122.914 260.059 122.844C260.348 122.769 260.638 122.664 260.927 122.529V122.865ZM260.843 125V120.1H261.2V125H260.843Z" fill="black"/>
<rect x="82" y="184" width="140" height="9" rx="4.5" fill="#C4C4C4"/>
<rect width="13" height="9" rx="4.5" transform="matrix(-1 0 0 1 26 184)" fill="#C4C4C4"/>
<rect width="12" height="9" rx="4.5" transform="matrix(-1 0 0 1 50 184)" fill="#C4C4C4"/>
<rect width="11" height="9" rx="4.5" transform="matrix(-1 0 0 1 242 184)" fill="#C4C4C4"/>
<rect width="13" height="9" rx="4.5" transform="matrix(-1 0 0 1 266 184)" fill="#C4C4C4"/>
<rect width="12" height="9" rx="4.5" transform="matrix(-1 0 0 1 290 184)" fill="#C4C4C4"/>
<rect width="13" height="9" rx="4.5" transform="matrix(-1 0 0 1 74 184)" fill="#C4C4C4"/>
<path d="M17.735 192.358V185.806H19.198V186.359H18.407V191.805H19.198V192.358H17.735Z" fill="black"/>
<path d="M285.596 192.358H284.133V191.805H284.924V186.359H284.133V185.806H285.596V192.358Z" fill="black"/>
<path d="M43.798 188.214C43.6673 188.214 43.5553 188.17 43.462 188.081C43.3687 187.988 43.322 187.871 43.322 187.731C43.322 187.591 43.3687 187.477 43.462 187.388C43.5553 187.299 43.6673 187.255 43.798 187.255C43.924 187.255 44.0313 187.299 44.12 187.388C44.2133 187.477 44.26 187.591 44.26 187.731C44.26 187.871 44.2133 187.988 44.12 188.081C44.0313 188.17 43.924 188.214 43.798 188.214ZM43.798 191.042C43.6673 191.042 43.5553 190.998 43.462 190.909C43.3687 190.816 43.322 190.699 43.322 190.559C43.322 190.419 43.3687 190.305 43.462 190.216C43.5553 190.127 43.6673 190.083 43.798 190.083C43.924 190.083 44.0313 190.127 44.12 190.216C44.2133 190.305 44.26 190.419 44.26 190.559C44.26 190.699 44.2133 190.816 44.12 190.909C44.0313 190.998 43.924 191.042 43.798 191.042Z" fill="black"/>
<path d="M65.804 191.7L68.114 185.106H68.723L66.413 191.7H65.804Z" fill="black"/>
<path d="M236.798 191.042C236.667 191.042 236.555 190.998 236.462 190.909C236.369 190.816 236.322 190.699 236.322 190.559C236.322 190.419 236.369 190.305 236.462 190.216C236.555 190.127 236.667 190.083 236.798 190.083C236.924 190.083 237.031 190.127 237.12 190.216C237.213 190.305 237.26 190.419 237.26 190.559C237.26 190.699 237.213 190.816 237.12 190.909C237.031 190.998 236.924 191.042 236.798 191.042Z" fill="black"/>
<path d="M22.798 27.042C22.6673 27.042 22.5553 26.9977 22.462 26.909C22.3687 26.8157 22.322 26.699 22.322 26.559C22.322 26.419 22.3687 26.3047 22.462 26.216C22.5553 26.1273 22.6673 26.083 22.798 26.083C22.924 26.083 23.0313 26.1273 23.12 26.216C23.2133 26.3047 23.26 26.419 23.26 26.559C23.26 26.699 23.2133 26.8157 23.12 26.909C23.0313 26.9977 22.924 27.042 22.798 27.042Z" fill="black"/>
<path d="M264.798 48.042C264.667 48.042 264.555 47.9977 264.462 47.909C264.369 47.8157 264.322 47.699 264.322 47.559C264.322 47.419 264.369 47.3047 264.462 47.216C264.555 47.1273 264.667 47.083 264.798 47.083C264.924 47.083 265.031 47.1273 265.12 47.216C265.213 47.3047 265.26 47.419 265.26 47.559C265.26 47.699 265.213 47.8157 265.12 47.909C265.031 47.9977 264.924 48.042 264.798 48.042Z" fill="black"/>
<path d="M264.798 57.042C264.667 57.042 264.555 56.9977 264.462 56.909C264.369 56.8157 264.322 56.699 264.322 56.559C264.322 56.419 264.369 56.3047 264.462 56.216C264.555 56.1273 264.667 56.083 264.798 56.083C264.924 56.083 265.031 56.1273 265.12 56.216C265.213 56.3047 265.26 56.419 265.26 56.559C265.26 56.699 265.213 56.8157 265.12 56.909C265.031 56.9977 264.924 57.042 264.798 57.042Z" fill="black"/>
<path d="M264.798 66.042C264.667 66.042 264.555 65.9977 264.462 65.909C264.369 65.8157 264.322 65.699 264.322 65.559C264.322 65.419 264.369 65.3047 264.462 65.216C264.555 65.1273 264.667 65.083 264.798 65.083C264.924 65.083 265.031 65.1273 265.12 65.216C265.213 65.3047 265.26 65.419 265.26 65.559C265.26 65.699 265.213 65.8157 265.12 65.909C265.031 65.9977 264.924 66.042 264.798 66.042Z" fill="black"/>
<path d="M32.798 27.042C32.6673 27.042 32.5553 26.9977 32.462 26.909C32.3687 26.8157 32.322 26.699 32.322 26.559C32.322 26.419 32.3687 26.3047 32.462 26.216C32.5553 26.1273 32.6673 26.083 32.798 26.083C32.924 26.083 33.0313 26.1273 33.12 26.216C33.2133 26.3047 33.26 26.419 33.26 26.559C33.26 26.699 33.2133 26.8157 33.12 26.909C33.0313 26.9977 32.924 27.042 32.798 27.042Z" fill="black"/>
<path d="M274.798 48.042C274.667 48.042 274.555 47.9977 274.462 47.909C274.369 47.8157 274.322 47.699 274.322 47.559C274.322 47.419 274.369 47.3047 274.462 47.216C274.555 47.1273 274.667 47.083 274.798 47.083C274.924 47.083 275.031 47.1273 275.12 47.216C275.213 47.3047 275.26 47.419 275.26 47.559C275.26 47.699 275.213 47.8157 275.12 47.909C275.031 47.9977 274.924 48.042 274.798 48.042Z" fill="black"/>
<path d="M274.798 57.042C274.667 57.042 274.555 56.9977 274.462 56.909C274.369 56.8157 274.322 56.699 274.322 56.559C274.322 56.419 274.369 56.3047 274.462 56.216C274.555 56.1273 274.667 56.083 274.798 56.083C274.924 56.083 275.031 56.1273 275.12 56.216C275.213 56.3047 275.26 56.419 275.26 56.559C275.26 56.699 275.213 56.8157 275.12 56.909C275.031 56.9977 274.924 57.042 274.798 57.042Z" fill="black"/>
<path d="M274.798 66.042C274.667 66.042 274.555 65.9977 274.462 65.909C274.369 65.8157 274.322 65.699 274.322 65.559C274.322 65.419 274.369 65.3047 274.462 65.216C274.555 65.1273 274.667 65.083 274.798 65.083C274.924 65.083 275.031 65.1273 275.12 65.216C275.213 65.3047 275.26 65.419 275.26 65.559C275.26 65.699 275.213 65.8157 275.12 65.909C275.031 65.9977 274.924 66.042 274.798 66.042Z" fill="black"/>
<path d="M42.798 27.042C42.6673 27.042 42.5553 26.9977 42.462 26.909C42.3687 26.8157 42.322 26.699 42.322 26.559C42.322 26.419 42.3687 26.3047 42.462 26.216C42.5553 26.1273 42.6673 26.083 42.798 26.083C42.924 26.083 43.0313 26.1273 43.12 26.216C43.2133 26.3047 43.26 26.419 43.26 26.559C43.26 26.699 43.2133 26.8157 43.12 26.909C43.0313 26.9977 42.924 27.042 42.798 27.042Z" fill="black"/>
<path d="M284.798 48.042C284.667 48.042 284.555 47.9977 284.462 47.909C284.369 47.8157 284.322 47.699 284.322 47.559C284.322 47.419 284.369 47.3047 284.462 47.216C284.555 47.1273 284.667 47.083 284.798 47.083C284.924 47.083 285.031 47.1273 285.12 47.216C285.213 47.3047 285.26 47.419 285.26 47.559C285.26 47.699 285.213 47.8157 285.12 47.909C285.031 47.9977 284.924 48.042 284.798 48.042Z" fill="black"/>
<path d="M284.798 57.042C284.667 57.042 284.555 56.9977 284.462 56.909C284.369 56.8157 284.322 56.699 284.322 56.559C284.322 56.419 284.369 56.3047 284.462 56.216C284.555 56.1273 284.667 56.083 284.798 56.083C284.924 56.083 285.031 56.1273 285.12 56.216C285.213 56.3047 285.26 56.419 285.26 56.559C285.26 56.699 285.213 56.8157 285.12 56.909C285.031 56.9977 284.924 57.042 284.798 57.042Z" fill="black"/>
<path d="M284.798 66.042C284.667 66.042 284.555 65.9977 284.462 65.909C284.369 65.8157 284.322 65.699 284.322 65.559C284.322 65.419 284.369 65.3047 284.462 65.216C284.555 65.1273 284.667 65.083 284.798 65.083C284.924 65.083 285.031 65.1273 285.12 65.216C285.213 65.3047 285.26 65.419 285.26 65.559C285.26 65.699 285.213 65.8157 285.12 65.909C285.031 65.9977 284.924 66.042 284.798 66.042Z" fill="black"/>
<ellipse cx="260.5" cy="189" rx="3.5" ry="3" fill="black"/>
<path d="M260.014 189.617L256.291 190.859L256.352 188.173L260.014 189.617Z" fill="#C4C4C4"/>
<path d="M298.5 102C298.5 105.866 298.5 106.2 298.5 109C294.634 109 292 105.866 292 102C292 98.134 294.634 95 298.5 95C298.5 97.5 298.5 98.134 298.5 102Z" fill="#C4C4C4"/>
<path d="M1.5 102.5C1.5 98.3579 1.5 98 1.5 95C5.91828 95 9 98.3579 9 102.5C9 106.642 5.91828 110 1.5 110C1.5 107.321 1.5 106.642 1.5 102.5Z" fill="#C4C4C4"/>
<path d="M151.5 85C158.404 85 159 85 164 85C164 89.9706 158.404 94 151.5 94C144.596 94 139 89.9706 139 85C143.464 85 144.596 85 151.5 85Z" fill="#C4C4C4"/>
<path d="M151.5 85C158.404 85 159 85 164 85C164 79.4772 158.404 75 151.5 75C144.596 75 139 79.4772 139 85C143.464 85 144.596 85 151.5 85Z" fill="black"/>
<rect x="27" y="205" width="19" height="9" rx="4.5" fill="#D9D9D9"/>
<rect x="157" y="205" width="19" height="9" rx="4.5" fill="#D9D9D9"/>
<rect x="27" y="205" width="24" height="9" rx="4.5" fill="#D9D9D9"/>
<rect x="157" y="205" width="24" height="9" rx="4.5" fill="#D9D9D9"/>
<rect x="53" y="205" width="24" height="9" rx="4.5" fill="#D9D9D9"/>
<rect x="183" y="205" width="24" height="9" rx="4.5" fill="#D9D9D9"/>
<rect x="79" y="205" width="24" height="9" rx="4.5" fill="#D9D9D9"/>
<rect x="209" y="205" width="24" height="9" rx="4.5" fill="#D9D9D9"/>
<rect x="105" y="205" width="24" height="9" rx="4.5" fill="#D9D9D9"/>
<rect x="235" y="205" width="24" height="9" rx="4.5" fill="#D9D9D9"/>
<rect x="131" y="205" width="24" height="9" rx="4.5" fill="#D9D9D9"/>
<rect x="261" y="205" width="24" height="9" rx="4.5" fill="#D9D9D9"/>
<circle cx="155.5" cy="200.5" r="3.5" fill="black"/>
<circle cx="155.5" cy="200.5" r="1.5" fill="#3C3C3C"/>
</svg>
